<svg width="743" height="569" viewBox="0 0 743 569" fill="none" xmlns="http://www.w3.org/2000/svg">
<g clip-path="url(#clip0)">
<path d="M70.0715 550.923C73.3593 556.367 77.4351 561.021 82.0949 564.652C83.086 565.424 84.1033 566.152 85.1384 566.826H109.495C109.203 566.108 108.92 565.38 108.646 564.652C101.094 545.072 98.7256 523.076 101.874 501.757C105.023 480.438 113.53 460.868 126.199 445.796C111.477 451.383 97.8699 462.275 88.9693 477.722C84.6446 485.244 81.569 493.74 79.9185 502.724C78.4476 484.757 80.7853 466.629 86.7043 450.1C74.7517 462.047 65.4439 478.407 61.8963 496.821C58.3487 515.246 60.923 535.693 70.0715 550.923Z" fill="#F0F0F0"/>
<path d="M739.149 305.444H573.554C572.533 305.442 571.554 304.943 570.832 304.056C570.11 303.169 569.704 301.967 569.703 300.712V174.852C569.704 173.597 570.11 172.395 570.832 171.508C571.554 170.621 572.533 170.122 573.554 170.12H739.149C740.17 170.122 741.149 170.621 741.871 171.508C742.593 172.395 742.999 173.597 743 174.852V300.712C742.999 301.967 742.593 303.169 741.871 304.056C741.149 304.943 740.17 305.442 739.149 305.444Z" fill="white"/>
<path d="M739.149 305.444H573.554C572.533 305.442 571.554 304.943 570.832 304.056C570.11 303.169 569.704 301.967 569.703 300.712V174.852C569.704 173.597 570.11 172.395 570.832 171.508C571.554 170.621 572.533 170.122 573.554 170.12H739.149C740.17 170.122 741.149 170.621 741.871 171.508C742.593 172.395 742.999 173.597 743 174.852V300.712C742.999 301.967 742.593 303.169 741.871 304.056C741.149 304.943 740.17 305.442 739.149 305.444ZM573.554 172.013C572.941 172.014 572.354 172.313 571.921 172.845C571.487 173.378 571.244 174.099 571.243 174.852V300.712C571.244 301.465 571.487 302.186 571.921 302.719C572.354 303.251 572.941 303.55 573.554 303.551H739.149C739.761 303.55 740.349 303.251 740.782 302.719C741.215 302.186 741.459 301.465 741.46 300.712V174.852C741.459 174.099 741.215 173.378 740.782 172.845C740.349 172.313 739.761 172.014 739.149 172.013H573.554Z" fill="#3F3D56"/>
<path d="M706.415 212.154H606.288C605.368 212.154 604.487 211.705 603.837 210.907C603.187 210.108 602.822 209.025 602.822 207.896C602.822 206.766 603.187 205.683 603.837 204.884C604.487 204.086 605.368 203.637 606.288 203.637H706.415C707.334 203.637 708.216 204.086 708.866 204.884C709.516 205.683 709.881 206.766 709.881 207.896C709.881 209.025 709.516 210.108 708.866 210.907C708.216 211.705 707.334 212.154 706.415 212.154Z" fill="#CCCCCC"/>
<path d="M706.415 241.49H606.288C605.368 241.49 604.487 241.041 603.837 240.243C603.187 239.444 602.822 238.361 602.822 237.231C602.822 236.102 603.187 235.019 603.837 234.22C604.487 233.422 605.368 232.973 606.288 232.973H706.415C707.334 232.973 708.216 233.422 708.866 234.22C709.516 235.019 709.881 236.102 709.881 237.231C709.881 238.361 709.516 239.444 708.866 240.243C708.216 241.041 707.334 241.49 706.415 241.49Z" fill="#CCCCCC"/>
<path d="M697.495 288.002C704.335 288.002 709.881 281.189 709.881 272.784C709.881 264.379 704.335 257.566 697.495 257.566C690.654 257.566 685.108 264.379 685.108 272.784C685.108 281.189 690.654 288.002 697.495 288.002Z" fill="#F11C1C"/>
<path d="M697.835 265.615V264.165H698.184V265.615C698.679 265.641 699.164 265.787 699.613 266.044C699.938 266.232 700.219 266.519 700.428 266.879C700.621 267.212 700.724 267.61 700.723 268.019C700.73 268.317 700.649 268.609 700.494 268.839C700.427 268.944 700.342 269.028 700.244 269.086C700.147 269.144 700.04 269.174 699.931 269.173C699.85 269.175 699.77 269.156 699.695 269.119C699.62 269.081 699.553 269.025 699.496 268.953C699.438 268.883 699.392 268.798 699.361 268.704C699.331 268.611 699.316 268.511 699.318 268.41C699.318 268.269 699.342 268.129 699.388 268L699.528 267.637C699.577 267.486 699.601 267.323 699.597 267.16C699.601 266.907 699.536 266.66 699.411 266.459C699.275 266.248 699.091 266.091 698.883 266.006C698.657 265.915 698.422 265.857 698.184 265.834V271.052L698.262 271.109C698.992 271.584 699.655 272.199 700.226 272.931C700.479 273.299 700.68 273.717 700.82 274.167C700.96 274.603 701.032 275.067 701.034 275.535C701.04 276.142 700.911 276.739 700.661 277.262C700.417 277.772 700.058 278.186 699.628 278.454C699.175 278.727 698.686 278.902 698.184 278.969V280.524H697.835V278.998C697.328 278.993 696.827 278.866 696.36 278.626C695.894 278.413 695.482 278.051 695.168 277.577C694.892 277.152 694.742 276.623 694.745 276.079C694.735 275.697 694.831 275.322 695.017 275.015C695.09 274.883 695.189 274.774 695.303 274.699C695.418 274.623 695.546 274.583 695.677 274.581C695.755 274.578 695.833 274.594 695.905 274.63C695.978 274.665 696.044 274.718 696.1 274.786C696.155 274.853 696.198 274.935 696.227 275.024C696.256 275.113 696.269 275.209 696.267 275.305C696.24 275.598 696.14 275.875 695.98 276.095C695.896 276.231 695.824 276.378 695.766 276.533C695.726 276.653 695.706 276.783 695.708 276.913C695.709 277.261 695.806 277.598 695.983 277.869C696.177 278.173 696.433 278.408 696.725 278.55C697.059 278.71 697.415 278.787 697.773 278.778H697.835V272.55L697.392 272.235C696.973 271.936 696.654 271.688 696.434 271.491C696.219 271.299 696.02 271.082 695.84 270.842C695.394 270.258 695.146 269.487 695.149 268.686C695.147 268.188 695.248 267.697 695.444 267.26C695.635 266.825 695.916 266.458 696.259 266.197C696.736 265.843 697.278 265.643 697.835 265.615ZM697.835 265.825C697.534 265.836 697.238 265.917 696.962 266.063C696.685 266.231 696.458 266.5 696.312 266.834C696.146 267.197 696.06 267.607 696.065 268.024C696.062 268.532 696.189 269.028 696.428 269.442C696.555 269.668 696.707 269.87 696.88 270.042C697.161 270.299 697.454 270.535 697.758 270.747L697.835 270.804V265.825ZM698.184 278.759C698.385 278.739 698.582 278.688 698.772 278.607C698.926 278.534 699.069 278.43 699.197 278.302C699.437 278.051 699.622 277.731 699.738 277.372C699.873 276.974 699.941 276.548 699.939 276.117C699.908 275.426 699.73 274.757 699.422 274.178C699.114 273.599 698.687 273.129 698.184 272.817V278.759Z" fill="white"/>
<path d="M626.345 221.199H460.75C459.729 221.197 458.75 220.698 458.028 219.811C457.306 218.924 456.9 217.722 456.899 216.467V90.607C456.9 89.3526 457.306 88.1499 458.028 87.2629C458.75 86.3759 459.729 85.8769 460.75 85.8755H626.345C627.366 85.8769 628.345 86.3759 629.067 87.2629C629.789 88.1499 630.195 89.3526 630.196 90.607V216.467C630.195 217.722 629.789 218.924 629.067 219.811C628.345 220.698 627.366 221.197 626.345 221.199Z" fill="white"/>
<path d="M626.345 221.199H460.75C459.729 221.197 458.75 220.698 458.028 219.811C457.306 218.924 456.9 217.722 456.899 216.467V90.607C456.9 89.3526 457.306 88.1499 458.028 87.2629C458.75 86.3759 459.729 85.8769 460.75 85.8755H626.345C627.366 85.8769 628.345 86.3759 629.067 87.2629C629.789 88.1499 630.195 89.3526 630.196 90.607V216.467C630.195 217.722 629.789 218.924 629.067 219.811C628.345 220.698 627.366 221.197 626.345 221.199ZM460.75 87.7681C460.137 87.7689 459.55 88.0683 459.117 88.6005C458.683 89.1327 458.44 89.8544 458.439 90.607V216.467C458.44 217.22 458.683 217.941 459.117 218.474C459.55 219.006 460.137 219.305 460.75 219.306H626.345C626.957 219.305 627.545 219.006 627.978 218.474C628.411 217.941 628.655 217.22 628.655 216.467V90.607C628.655 89.8544 628.411 89.1327 627.978 88.6005C627.545 88.0683 626.957 87.7689 626.345 87.7681H460.75Z" fill="#3F3D56"/>
<path d="M593.611 127.909H493.484C492.565 127.909 491.683 127.461 491.033 126.662C490.383 125.863 490.018 124.78 490.018 123.651C490.018 122.521 490.383 121.438 491.033 120.64C491.683 119.841 492.565 119.392 493.484 119.392H593.611C594.53 119.392 595.412 119.841 596.062 120.64C596.712 121.438 597.077 122.521 597.077 123.651C597.077 124.78 596.712 125.863 596.062 126.662C595.412 127.461 594.53 127.909 593.611 127.909Z" fill="#CCCCCC"/>
<path d="M593.611 157.245H493.484C492.565 157.245 491.683 156.796 491.033 155.998C490.383 155.199 490.018 154.116 490.018 152.987C490.018 151.857 490.383 150.774 491.033 149.975C491.683 149.177 492.565 148.728 493.484 148.728H593.611C594.53 148.728 595.412 149.177 596.062 149.975C596.712 150.774 597.077 151.857 597.077 152.987C597.077 154.116 596.712 155.199 596.062 155.998C595.412 156.796 594.53 157.245 593.611 157.245Z" fill="#CCCCCC"/>
<path d="M584.691 203.758C591.531 203.758 597.077 196.944 597.077 188.539C597.077 180.134 591.531 173.321 584.691 173.321C577.85 173.321 572.304 180.134 572.304 188.539C572.304 196.944 577.85 203.758 584.691 203.758Z" fill="#F11C1C"/>
<path d="M585.031 181.37V179.92H585.38V181.37C585.875 181.396 586.36 181.542 586.809 181.799C587.134 181.987 587.415 182.274 587.624 182.634C587.817 182.967 587.92 183.365 587.919 183.774C587.926 184.072 587.845 184.364 587.69 184.594C587.623 184.699 587.538 184.784 587.44 184.841C587.342 184.899 587.235 184.929 587.127 184.928C587.046 184.93 586.966 184.911 586.891 184.874C586.816 184.836 586.749 184.78 586.692 184.709C586.634 184.638 586.588 184.553 586.557 184.459C586.526 184.366 586.512 184.266 586.514 184.165C586.514 184.024 586.538 183.884 586.584 183.755L586.723 183.392C586.773 183.241 586.797 183.078 586.793 182.915C586.797 182.662 586.732 182.416 586.607 182.214C586.471 182.003 586.287 181.846 586.079 181.761C585.853 181.67 585.618 181.612 585.38 181.589V186.807L585.458 186.864C586.188 187.339 586.851 187.954 587.422 188.686C587.675 189.054 587.876 189.472 588.016 189.922C588.155 190.358 588.228 190.822 588.23 191.29C588.236 191.897 588.107 192.494 587.857 193.017C587.613 193.527 587.254 193.941 586.824 194.209C586.371 194.482 585.882 194.657 585.38 194.724V196.279H585.031V194.753C584.524 194.748 584.023 194.622 583.556 194.381C583.09 194.168 582.678 193.806 582.364 193.332C582.088 192.907 581.938 192.378 581.941 191.834C581.931 191.452 582.027 191.077 582.213 190.77C582.286 190.638 582.385 190.529 582.499 190.454C582.614 190.378 582.742 190.338 582.873 190.336C582.951 190.333 583.029 190.349 583.101 190.385C583.174 190.42 583.24 190.473 583.296 190.541C583.351 190.609 583.394 190.69 583.423 190.779C583.452 190.868 583.465 190.964 583.463 191.06C583.436 191.353 583.336 191.63 583.175 191.85C583.092 191.986 583.02 192.133 582.962 192.288C582.922 192.408 582.902 192.538 582.904 192.668C582.905 193.016 583.002 193.353 583.179 193.625C583.373 193.929 583.629 194.163 583.921 194.305C584.254 194.465 584.611 194.543 584.969 194.534H585.031V188.305L584.588 187.99C584.169 187.691 583.85 187.443 583.63 187.246C583.415 187.054 583.216 186.837 583.036 186.597C582.59 186.013 582.342 185.242 582.345 184.441C582.343 183.943 582.444 183.452 582.64 183.015C582.831 182.58 583.112 182.213 583.455 181.952C583.932 181.598 584.474 181.398 585.031 181.37ZM585.031 181.58C584.73 181.591 584.434 181.672 584.157 181.818C583.881 181.986 583.654 182.256 583.508 182.589C583.342 182.952 583.256 183.362 583.261 183.779C583.257 184.287 583.385 184.783 583.624 185.197C583.751 185.423 583.903 185.625 584.076 185.798C584.356 186.054 584.65 186.29 584.954 186.502L585.031 186.559V181.58ZM585.38 194.514C585.58 194.494 585.778 194.443 585.968 194.362C586.122 194.289 586.265 194.186 586.393 194.057C586.632 193.806 586.818 193.486 586.934 193.127C587.069 192.729 587.137 192.303 587.135 191.872C587.104 191.181 586.926 190.512 586.618 189.933C586.31 189.354 585.883 188.884 585.38 188.572V194.514Z" fill="white"/>
<path d="M283.068 202.419C281.625 202.291 280.177 202.553 278.826 203.186C277.475 203.82 276.253 204.81 275.247 206.087C274.24 207.364 273.474 208.896 273.002 210.576C272.53 212.256 272.364 214.042 272.514 215.81L240.679 234.147L256.261 245.869L284.104 226.659C286.503 226.151 288.668 224.579 290.188 222.241C291.708 219.903 292.477 216.962 292.349 213.974C292.221 210.986 291.206 208.159 289.495 206.029C287.785 203.9 285.498 202.615 283.068 202.419Z" fill="#FFB6B6"/>
<path d="M151.333 555.223L162.328 555.222L167.559 503.118L151.332 503.119L151.333 555.223Z" fill="#FFB6B6"/>
<path d="M148.529 550.812L170.181 550.811H170.182C173.842 550.812 177.351 552.598 179.939 555.777C182.527 558.956 183.98 563.268 183.981 567.764V568.315L148.53 568.317L148.529 550.812Z" fill="#2F2E41"/>
<path d="M207.435 555.223L218.429 555.222L223.66 503.118L207.433 503.119L207.435 555.223Z" fill="#FFB6B6"/>
<path d="M204.63 550.812L226.283 550.811H226.283C229.943 550.812 233.452 552.598 236.04 555.777C238.628 558.956 240.082 563.268 240.082 567.764V568.315L204.631 568.317L204.63 550.812Z" fill="#2F2E41"/>
<path d="M214.779 284.975L220.359 299.736L230.419 431.743L222.599 545.205H204.309L182.727 366.362L172.589 541.085L147.91 539.861L143.173 302.975L214.779 284.975Z" fill="#2F2E41"/>
<path d="M125.853 163.157L148.988 151.593L181.643 153.843L210.674 166.841L220.359 299.736C195.103 316.681 169.52 321.306 143.491 309.189L119.335 222.631L125.853 163.157Z" fill="#E4E4E4"/>
<path d="M201.641 170.354L211.908 166.841C211.908 166.841 219.673 160.638 222.228 179.078C224.783 197.519 237.93 226.203 237.93 226.203L260.435 211.467L270.854 239.424L235.313 265.876L197.886 219.542L201.641 170.354Z" fill="#E4E4E4"/>
<path d="M145.327 126.971C144.08 123.495 143.403 119.751 143.334 115.954C143.264 112.156 143.805 108.379 144.923 104.838C146.042 101.297 147.718 98.0616 149.854 95.3162C151.991 92.5708 154.547 90.3693 157.376 88.8375C160.205 87.3057 163.252 86.4735 166.343 86.3884C169.433 86.3033 172.508 86.9671 175.39 88.3418C178.272 89.7164 180.905 91.7751 183.14 94.4002C185.374 97.0253 187.166 100.165 188.413 103.641L188.547 104.024C191.024 111.067 191.123 119.031 188.821 126.164C187.681 129.695 185.986 132.917 183.833 135.643C181.68 138.37 179.111 140.549 176.273 142.057C170.54 145.1 164.058 145.221 158.253 142.393C152.448 139.565 147.795 134.019 145.318 126.975L145.327 126.971Z" fill="#FFB6B6"/>
<path d="M177.288 100.498C182.183 101.589 189.759 105.376 193.963 100.933C191.887 97.9527 189.275 95.6055 186.334 94.0773C185.755 93.8411 185.218 93.4687 184.755 92.9807C183.321 91.201 184.429 88.1343 183.773 85.728C183.455 84.8487 182.974 84.0723 182.37 83.46C181.765 82.8477 181.053 82.4162 180.29 82.1996C178.831 81.6632 177.302 81.5761 175.868 80.9256C172.476 79.3592 170.065 74.8765 166.588 73.6584C163.558 72.5817 160.51 74.255 157.895 76.2078C155.28 78.1605 152.694 80.4774 149.635 80.848C147.349 81.1042 145.903 85.7236 143.608 85.8589C138.799 86.1463 139.066 82.2523 138.71 88.4591C138.505 92.163 134.198 99.5314 134.268 103.267C134.339 105.716 133.986 108.14 134.043 110.596C134.173 115.273 135.699 119.727 138.332 123.109C140.521 125.875 143.369 127.741 145.212 130.894C146.17 132.568 146.835 134.522 147.95 136.036C149.066 137.551 150.956 138.462 152.201 137.381C153.446 136.3 153.469 133.96 154.087 132.179C154.466 131.087 155.113 130.168 155.938 129.551C156.763 128.934 157.725 128.65 158.688 128.737C159.689 128.898 160.633 129.399 161.415 130.183C162.196 130.967 162.784 132.003 163.113 133.175C162.53 129.24 160.993 125.553 160.408 121.615C159.824 117.677 160.586 112.972 163.346 111.435C164.531 110.757 166.131 110.575 166.608 109.014C166.899 108.074 166.633 106.962 166.745 105.945C167.351 100.961 174.096 99.7283 177.288 100.498Z" fill="#2F2E41"/>
<path d="M146.265 307.653C146.054 305.895 145.532 304.215 144.735 302.731C143.939 301.248 142.887 299.997 141.655 299.067C140.422 298.137 139.039 297.55 137.602 297.348C136.164 297.146 134.709 297.334 133.337 297.898L111.866 263.69L105.93 284.92L127.23 314.15C128.153 316.919 129.872 319.175 132.059 320.49C134.246 321.806 136.75 322.091 139.096 321.29C141.443 320.489 143.468 318.658 144.79 316.145C146.111 313.632 146.636 310.61 146.265 307.653V307.653Z" fill="#FFB6B6"/>
<path d="M133.269 169.609L125.853 163.157C125.853 163.157 108.886 161.963 106.418 179.078L75.3077 241.958L113.881 307.34L132.582 283.153L108.985 249.272L128.797 204.579L133.269 169.609Z" fill="#E4E4E4"/>
<path d="M313.953 179.573H313.564V166.477C313.564 165.482 313.404 164.496 313.094 163.577C312.784 162.657 312.33 161.822 311.757 161.118C311.184 160.414 310.504 159.856 309.756 159.475C309.007 159.094 308.205 158.898 307.395 158.898H284.814C284.004 158.898 283.201 159.094 282.453 159.475C281.704 159.856 281.024 160.414 280.452 161.118C279.879 161.822 279.424 162.657 279.114 163.577C278.804 164.496 278.645 165.482 278.645 166.477V238.32C278.645 239.316 278.804 240.301 279.114 241.221C279.424 242.141 279.879 242.976 280.452 243.68C281.024 244.384 281.704 244.942 282.453 245.323C283.201 245.704 284.004 245.9 284.814 245.9H307.395C308.205 245.9 309.007 245.704 309.756 245.323C310.504 244.942 311.184 244.384 311.757 243.68C312.33 242.976 312.784 242.141 313.094 241.221C313.404 240.301 313.564 239.316 313.564 238.32V188.895H313.953V179.573Z" fill="#3F3D56"/>
<path d="M307.644 160.87H304.696C304.832 161.278 304.884 161.721 304.847 162.16C304.81 162.599 304.687 163.02 304.486 163.386C304.286 163.752 304.016 164.051 303.699 164.259C303.382 164.466 303.029 164.575 302.67 164.575H289.733C289.374 164.575 289.021 164.466 288.704 164.259C288.387 164.051 288.117 163.752 287.917 163.386C287.717 163.019 287.593 162.599 287.556 162.16C287.52 161.721 287.571 161.278 287.707 160.87H284.954C283.732 160.87 282.56 161.466 281.696 162.528C280.832 163.589 280.347 165.029 280.347 166.53V238.268C280.347 239.769 280.832 241.209 281.696 242.27C282.56 243.332 283.732 243.928 284.954 243.928H307.644C308.866 243.928 310.038 243.332 310.901 242.27C311.765 241.209 312.251 239.769 312.251 238.268V166.53C312.251 165.029 311.765 163.589 310.901 162.528C310.038 161.466 308.866 160.87 307.644 160.87Z" fill="#F11C1C"/>
<path d="M511.329 135.323H345.734C344.713 135.322 343.734 134.823 343.012 133.936C342.29 133.049 341.884 131.846 341.883 130.592V4.73159C341.884 3.47714 342.29 2.27447 343.012 1.38743C343.734 0.500401 344.713 0.00143564 345.734 0H511.329C512.35 0.00143564 513.329 0.5004 514.051 1.38743C514.773 2.27447 515.179 3.47714 515.18 4.73159V130.592C515.179 131.846 514.773 133.049 514.051 133.936C513.329 134.823 512.35 135.322 511.329 135.323Z" fill="white"/>
<path d="M511.329 135.323H345.734C344.713 135.322 343.734 134.823 343.012 133.936C342.29 133.049 341.884 131.846 341.883 130.592V4.73159C341.884 3.47714 342.29 2.27447 343.012 1.38743C343.734 0.500401 344.713 0.00143564 345.734 0H511.329C512.35 0.00143564 513.329 0.5004 514.051 1.38743C514.773 2.27447 515.179 3.47714 515.18 4.73159V130.592C515.179 131.846 514.773 133.049 514.051 133.936C513.329 134.823 512.35 135.322 511.329 135.323ZM345.734 1.89263C345.121 1.89346 344.534 2.19283 344.101 2.72506C343.668 3.25729 343.424 3.97891 343.423 4.73159V130.592C343.424 131.344 343.668 132.066 344.101 132.598C344.534 133.13 345.121 133.43 345.734 133.431H511.329C511.942 133.43 512.529 133.13 512.962 132.598C513.395 132.066 513.639 131.344 513.64 130.592V4.73159C513.639 3.97891 513.395 3.25729 512.962 2.72506C512.529 2.19283 511.942 1.89346 511.329 1.89263H345.734Z" fill="#3F3D56"/>
<path d="M478.595 42.0337H378.468C377.548 42.0337 376.667 41.5851 376.017 40.7865C375.367 39.9878 375.002 38.9047 375.002 37.7753C375.002 36.6459 375.367 35.5627 376.017 34.7641C376.667 33.9655 377.548 33.5168 378.468 33.5168H478.595C479.514 33.5168 480.396 33.9655 481.046 34.7641C481.696 35.5627 482.061 36.6459 482.061 37.7753C482.061 38.9047 481.696 39.9878 481.046 40.7865C480.396 41.5851 479.514 42.0337 478.595 42.0337Z" fill="#CCCCCC"/>
<path d="M478.595 71.3695H378.468C377.548 71.3695 376.667 70.9209 376.017 70.1223C375.367 69.3237 375.002 68.2405 375.002 67.1111C375.002 65.9817 375.367 64.8985 376.017 64.0999C376.667 63.3013 377.548 62.8526 378.468 62.8526H478.595C479.514 62.8526 480.396 63.3013 481.046 64.0999C481.696 64.8985 482.061 65.9817 482.061 67.1111C482.061 68.2405 481.696 69.3237 481.046 70.1223C480.396 70.9209 479.514 71.3695 478.595 71.3695Z" fill="#CCCCCC"/>
<path d="M469.675 117.882C476.515 117.882 482.061 111.069 482.061 102.664C482.061 94.2587 476.515 87.4452 469.675 87.4452C462.834 87.4452 457.288 94.2587 457.288 102.664C457.288 111.069 462.834 117.882 469.675 117.882Z" fill="#F11C1C"/>
<path d="M470.015 95.4944V94.0445H470.364V95.4944C470.859 95.5209 471.344 95.6667 471.793 95.9237C472.118 96.1116 472.399 96.399 472.608 96.7585C472.801 97.0911 472.904 97.4898 472.903 97.8983C472.91 98.1968 472.829 98.4884 472.674 98.7186C472.607 98.8234 472.522 98.9081 472.424 98.9659C472.326 99.0238 472.219 99.0534 472.111 99.0525C472.03 99.0544 471.95 99.0359 471.875 98.9982C471.8 98.9604 471.733 98.9043 471.676 98.8331C471.618 98.7623 471.572 98.6775 471.541 98.584C471.51 98.4905 471.496 98.3902 471.498 98.2894C471.498 98.1482 471.522 98.0086 471.568 97.8792L471.707 97.5167C471.757 97.3652 471.781 97.2029 471.777 97.0398C471.781 96.787 471.716 96.54 471.591 96.3388C471.455 96.1278 471.271 95.9703 471.063 95.8855C470.837 95.7943 470.602 95.7366 470.364 95.7138V100.932L470.442 100.989C471.172 101.463 471.835 102.078 472.406 102.811C472.659 103.179 472.86 103.596 473 104.046C473.14 104.482 473.212 104.946 473.214 105.415C473.22 106.021 473.091 106.618 472.841 107.141C472.597 107.652 472.238 108.066 471.808 108.334C471.355 108.607 470.866 108.781 470.364 108.849V110.404H470.015V108.877C469.508 108.872 469.007 108.746 468.54 108.505C468.074 108.292 467.662 107.93 467.348 107.456C467.072 107.031 466.922 106.503 466.925 105.959C466.915 105.576 467.011 105.202 467.197 104.895C467.27 104.763 467.369 104.654 467.483 104.578C467.598 104.503 467.726 104.463 467.857 104.461C467.935 104.458 468.013 104.474 468.085 104.509C468.158 104.544 468.224 104.597 468.28 104.665C468.335 104.733 468.378 104.814 468.407 104.903C468.436 104.993 468.449 105.088 468.447 105.184C468.42 105.478 468.32 105.754 468.159 105.974C468.076 106.11 468.004 106.257 467.946 106.412C467.906 106.533 467.886 106.662 467.888 106.793C467.889 107.141 467.986 107.478 468.163 107.749C468.357 108.053 468.613 108.288 468.905 108.429C469.239 108.589 469.595 108.667 469.953 108.658H470.015V102.429L469.572 102.114C469.153 101.816 468.834 101.568 468.614 101.37C468.399 101.179 468.2 100.962 468.02 100.722C467.574 100.138 467.326 99.3666 467.329 98.5659C467.327 98.0675 467.428 97.5767 467.624 97.14C467.815 96.7043 468.096 96.3376 468.439 96.0763C468.916 95.7228 469.458 95.5227 470.015 95.4944ZM470.015 95.7043C469.714 95.7158 469.418 95.7966 469.141 95.9424C468.865 96.1106 468.638 96.38 468.492 96.7135C468.326 97.0764 468.24 97.4869 468.245 97.9034C468.241 98.4115 468.369 98.9078 468.608 99.322C468.735 99.5475 468.887 99.7495 469.06 99.9221C469.34 100.179 469.634 100.414 469.938 100.626L470.015 100.684V95.7043ZM470.364 108.639C470.564 108.618 470.762 108.567 470.952 108.486C471.106 108.413 471.249 108.31 471.377 108.181C471.616 107.93 471.802 107.611 471.918 107.251C472.053 106.854 472.121 106.427 472.119 105.997C472.088 105.306 471.91 104.637 471.602 104.058C471.294 103.478 470.867 103.009 470.364 102.696V108.639Z" fill="white"/>
<path d="M337.97 569H0.884738C0.650091 569 0.425053 568.885 0.259133 568.682C0.0932125 568.478 0 568.201 0 567.913C0 567.625 0.0932125 567.348 0.259133 567.144C0.425053 566.94 0.650091 566.826 0.884738 566.826H337.97C338.204 566.826 338.43 566.94 338.595 567.144C338.761 567.348 338.855 567.625 338.855 567.913C338.855 568.201 338.761 568.478 338.595 568.682C338.43 568.885 338.204 569 337.97 569Z" fill="#CACACA"/>
</g>
<defs>
<clipPath id="clip0">
<rect width="743" height="569" fill="white"/>
</clipPath>
</defs>
</svg>
